# xmcd
#
# Track frame offsets: 
#        150
#        24068
#        48122
#        76423
#        105437
#        134735
#        156004
#        177954
#        202950
#        229948
#        253789
#        276744
#        300667
#
# Disc length: 4288 seconds
#
# Revision: 0
# Processed by: cddbd v1.5.2PL0 Copyright (c) Steve Scherf et al.
# Submitted via: ExactAudioCopy v1.0b1
#
DISCID=a910be0d
DTITLE=Bang Kieu - Mat Biec - Vol.3
DYEAR=2004
DGENRE=Pop
TTITLE0=01 Le da
TTITLE1=02 Xin con goi ten nhau
TTITLE2=03 Ha trang
TTITLE3=04 Mat biec
TTITLE4=05 Tha nhu giot mua
TTITLE5=06 Dau tinh sau
TTITLE6=07 Nhu chiec que diem
TTITLE7=08 Roi mai toi dua em
TTITLE8=09 Thu hat cho nguoi
TTITLE9=10 Phoi pha
TTITLE10=11 Bai khong ten so 2
TTITLE11=12 Le da(karaoke)
TTITLE12=13 Dau tinh sau(karaoke)
EXTD=
EXTT0=
EXTT1=
EXTT2=
EXTT3=
EXTT4=
EXTT5=
EXTT6=
EXTT7=
EXTT8=
EXTT9=
EXTT10=
EXTT11=
EXTT12=
PLAYORDER=
